<?xml version="1.0" encoding="UTF-8"?>
<svg width="1200pt" height="1200pt" version="1.1" viewBox="0 0 1200 1200" xmlns="http://www.w3.org/2000/svg">
 <path d="m825 637.5c0 41.422-33.578 75-75 75s-75-33.578-75-75 33.578-75 75-75 75 33.578 75 75"/>
 <path d="m525 637.5c0 41.422-33.578 75-75 75s-75-33.578-75-75 33.578-75 75-75 75 33.578 75 75"/>
 <path d="m675 900h-150c-13.398 0-25.777-7.1484-32.477-18.75-6.6992-11.602-6.6992-25.898 0-37.5 6.6992-11.602 19.078-18.75 32.477-18.75h150c13.398 0 25.777 7.1484 32.477 18.75 6.6992 11.602 6.6992 25.898 0 37.5-6.6992 11.602-19.078 18.75-32.477 18.75z"/>
 <path d="m1012.5 600v-75c0-39.781-15.805-77.938-43.934-106.07s-66.285-43.934-106.07-43.934h-187.5l108-167.25c6.0156-8.3477 8.3359-18.805 6.4141-28.914-1.918-10.109-7.9062-18.984-16.562-24.551-8.6562-5.5625-19.219-7.3242-29.211-4.875-9.9961 2.4531-18.543 8.9023-23.641 17.84l-120 183.75-118.5-183.75c-7.5547-10.488-19.98-16.344-32.879-15.5-12.895 0.84375-24.449 8.2695-30.574 19.656-6.1211 11.383-5.9531 25.117 0.45312 36.344l106.5 167.25h-187.5c-39.781 0-77.938 15.805-106.07 43.934s-43.934 66.285-43.934 106.07v75c-40.191 0-77.332 21.441-97.43 56.25-20.094 34.809-20.094 77.691 0 112.5 20.098 34.809 57.238 56.25 97.43 56.25v75c0 39.781 15.805 77.938 43.934 106.07s66.285 43.934 106.07 43.934h525c39.781 0 77.938-15.805 106.07-43.934s43.934-66.285 43.934-106.07v-75c40.191 0 77.332-21.441 97.43-56.25 20.094-34.809 20.094-77.691 0-112.5-20.098-34.809-57.238-56.25-97.43-56.25zm-75 300c0 19.891-7.9023 38.969-21.969 53.031-14.062 14.066-33.141 21.969-53.031 21.969h-525c-19.891 0-38.969-7.9023-53.031-21.969-14.066-14.062-21.969-33.141-21.969-53.031v-375c0-19.891 7.9023-38.969 21.969-53.031 14.062-14.066 33.141-21.969 53.031-21.969h525c19.891 0 38.969 7.9023 53.031 21.969 14.066 14.062 21.969 33.141 21.969 53.031z"/>
</svg>
