<?xml version="1.0" encoding="UTF-8"?>
<svg width="1200pt" height="1200pt" version="1.1" viewBox="0 0 1200 1200" xmlns="http://www.w3.org/2000/svg">
 <path d="m337.5 337.5c0-69.609 27.656-136.4 76.875-185.63 49.219-49.223 116.02-76.875 185.63-76.875 69.613 0 136.4 27.656 185.63 76.875 49.223 49.219 76.875 116.02 76.875 185.63s-27.656 136.4-76.875 185.63c-49.219 49.223-116.02 76.875-185.63 76.875-69.609-0.09375-136.31-27.75-185.53-76.969-49.219-49.219-76.875-115.92-76.969-185.53zm701.26 651.19c-5.3438-22.688-12.75-44.859-22.125-66.234-66.844-152.63-226.45-247.45-416.63-247.45-215.9 0-391.78 124.64-437.76 310.13-8.3438 33.656-0.70313 69.234 20.625 96.562 21.328 27.281 54.047 43.266 88.734 43.312h657c34.781 0.09375 67.688-15.891 89.203-43.266 20.906-26.156 28.641-60.469 20.953-93.047z"/>
</svg>
